<svg width="255" height="77" viewBox="0 0 255 77" fill="none" xmlns="http://www.w3.org/2000/svg">
<path d="M61.8333 38.5C61.8333 49.29 56.1033 58.7547 47.5 64.0408C38.8967 58.7547 33.1667 49.29 33.1667 38.5C33.1667 27.71 38.8967 18.2453 47.5 12.9592C56.1033 18.2453 61.8333 27.71 61.8333 38.5ZM31.6667 8.5C36.2537 8.5 40.6006 9.51777 44.4923 11.3383C35.8385 17.2919 30.1667 27.2344 30.1667 38.5C30.1667 49.7656 35.8385 59.7081 44.4923 65.6617C40.6006 67.4822 36.2537 68.5 31.6667 68.5C14.9986 68.5 1.5 55.0611 1.5 38.5C1.5 21.9389 14.9986 8.5 31.6667 8.5ZM50.5077 11.3383C54.3994 9.51777 58.7463 8.5 63.3333 8.5C80.0014 8.5 93.5 21.9389 93.5 38.5C93.5 55.0611 80.0014 68.5 63.3333 68.5C58.7463 68.5 54.3994 67.4822 50.5077 65.6617C59.1615 59.7081 64.8333 49.7656 64.8333 38.5C64.8333 27.2344 59.1615 17.2919 50.5077 11.3383Z" fill="#31D861" stroke="white" stroke-width="3"/>
<mask id="path-2-inside-1_26_370" fill="white">
<path fill-rule="evenodd" clip-rule="evenodd" d="M46.8475 66C56.3094 60.576 62.6949 50.2928 62.6949 38.5C62.6949 26.7072 56.3094 16.424 46.8475 11C37.3855 16.424 31 26.7072 31 38.5C31 50.2928 37.3855 60.576 46.8475 66Z"/>
</mask>
<path fill-rule="evenodd" clip-rule="evenodd" d="M46.8475 66C56.3094 60.576 62.6949 50.2928 62.6949 38.5C62.6949 26.7072 56.3094 16.424 46.8475 11C37.3855 16.424 31 26.7072 31 38.5C31 50.2928 37.3855 60.576 46.8475 66Z" fill="#071805"/>
<path d="M46.8475 66L45.3555 68.6027L46.8475 69.458L48.3394 68.6027L46.8475 66ZM46.8475 11L48.3394 8.39731L46.8475 7.54204L45.3555 8.39731L46.8475 11ZM59.6949 38.5C59.6949 49.1868 53.9119 58.4924 45.3555 63.3973L48.3394 68.6027C58.707 62.6595 65.6949 51.3989 65.6949 38.5H59.6949ZM45.3555 13.6027C53.9119 18.5076 59.6949 27.8132 59.6949 38.5H65.6949C65.6949 25.6011 58.707 14.3405 48.3394 8.39731L45.3555 13.6027ZM34 38.5C34 27.8132 39.783 18.5076 48.3394 13.6027L45.3555 8.39731C34.9879 14.3405 28 25.6011 28 38.5H34ZM48.3394 63.3973C39.783 58.4924 34 49.1868 34 38.5H28C28 51.3989 34.9879 62.6595 45.3555 68.6027L48.3394 63.3973Z" fill="white" mask="url(#path-2-inside-1_26_370)"/>
<path d="M115.847 48.5824L115.868 37.6946H117.189L127.672 25.2727H138.091L124.007 41.7216H121.855L115.847 48.5824ZM107.622 58V14.3636H116.699V58H107.622ZM128.077 58L118.446 43.7457L124.497 37.3324L138.709 58H128.077ZM153.583 58.6392C150.274 58.6392 147.411 57.9361 144.997 56.5298C142.596 55.1094 140.742 53.1349 139.436 50.6065C138.129 48.0639 137.475 45.1165 137.475 41.7642C137.475 38.3835 138.129 35.429 139.436 32.9006C140.742 30.358 142.596 28.3835 144.997 26.9773C147.411 25.5568 150.274 24.8466 153.583 24.8466C156.893 24.8466 159.748 25.5568 162.149 26.9773C164.563 28.3835 166.424 30.358 167.731 32.9006C169.038 35.429 169.691 38.3835 169.691 41.7642C169.691 45.1165 169.038 48.0639 167.731 50.6065C166.424 53.1349 164.563 55.1094 162.149 56.5298C159.748 57.9361 156.893 58.6392 153.583 58.6392ZM153.626 51.608C155.132 51.608 156.389 51.1818 157.397 50.3295C158.406 49.4631 159.166 48.2841 159.677 46.7926C160.203 45.3011 160.465 43.6037 160.465 41.7003C160.465 39.7969 160.203 38.0994 159.677 36.608C159.166 35.1165 158.406 33.9375 157.397 33.071C156.389 32.2045 155.132 31.7713 153.626 31.7713C152.106 31.7713 150.828 32.2045 149.791 33.071C148.768 33.9375 147.994 35.1165 147.468 36.608C146.957 38.0994 146.701 39.7969 146.701 41.7003C146.701 43.6037 146.957 45.3011 147.468 46.7926C147.994 48.2841 148.768 49.4631 149.791 50.3295C150.828 51.1818 152.106 51.608 153.626 51.608ZM182.27 14.3636V58H173.193V14.3636H182.27ZM202.056 58.6392C198.689 58.6392 195.791 57.9574 193.363 56.5938C190.948 55.2159 189.087 53.2699 187.78 50.7557C186.473 48.2273 185.82 45.2372 185.82 41.7855C185.82 38.419 186.473 35.4645 187.78 32.9219C189.087 30.3793 190.926 28.3977 193.299 26.9773C195.685 25.5568 198.483 24.8466 201.693 24.8466C203.853 24.8466 205.863 25.1946 207.723 25.8906C209.598 26.5724 211.232 27.6023 212.624 28.9801C214.03 30.358 215.124 32.0909 215.905 34.179C216.686 36.2528 217.077 38.6818 217.077 41.4659V43.9588H189.442V38.3338H208.533C208.533 37.027 208.249 35.8693 207.681 34.8608C207.113 33.8523 206.324 33.0639 205.316 32.4957C204.321 31.9134 203.164 31.6222 201.843 31.6222C200.465 31.6222 199.243 31.9418 198.178 32.581C197.127 33.206 196.303 34.0511 195.706 35.1165C195.11 36.1676 194.804 37.3395 194.79 38.6321V43.9801C194.79 45.5994 195.088 46.9986 195.685 48.1776C196.296 49.3565 197.155 50.2656 198.263 50.9048C199.371 51.544 200.685 51.8636 202.205 51.8636C203.213 51.8636 204.137 51.7216 204.975 51.4375C205.813 51.1534 206.53 50.7273 207.127 50.1591C207.723 49.5909 208.178 48.8949 208.49 48.071L216.885 48.625C216.459 50.642 215.586 52.4034 214.264 53.9091C212.958 55.4006 211.267 56.5653 209.193 57.4034C207.134 58.2273 204.755 58.6392 202.056 58.6392ZM220.771 58V14.3636H229.847V30.7699H230.124C230.522 29.8892 231.097 28.9943 231.85 28.0852C232.617 27.1619 233.612 26.3949 234.833 25.7841C236.069 25.1591 237.603 24.8466 239.436 24.8466C241.822 24.8466 244.024 25.4716 246.041 26.7216C248.058 27.9574 249.67 29.8253 250.877 32.3253C252.085 34.8111 252.688 37.929 252.688 41.679C252.688 45.3295 252.099 48.4119 250.92 50.9261C249.755 53.4261 248.164 55.3224 246.147 56.6151C244.144 57.8935 241.9 58.5327 239.414 58.5327C237.653 58.5327 236.154 58.2415 234.918 57.6591C233.697 57.0767 232.695 56.3452 231.914 55.4645C231.133 54.5696 230.536 53.6676 230.124 52.7585H229.72V58H220.771ZM229.656 41.6364C229.656 43.5824 229.926 45.2798 230.465 46.7287C231.005 48.1776 231.786 49.3068 232.809 50.1165C233.832 50.9119 235.075 51.3097 236.538 51.3097C238.015 51.3097 239.265 50.9048 240.288 50.0952C241.311 49.2713 242.085 48.1349 242.61 46.6861C243.15 45.223 243.42 43.5398 243.42 41.6364C243.42 39.7472 243.157 38.0852 242.632 36.6506C242.106 35.2159 241.332 34.0937 240.309 33.2841C239.286 32.4744 238.029 32.0696 236.538 32.0696C235.061 32.0696 233.811 32.4602 232.788 33.2415C231.779 34.0227 231.005 35.1307 230.465 36.5653C229.926 38 229.656 39.6903 229.656 41.6364Z" fill="white"/>
</svg>
